<svg width="186" height="92" viewBox="0 0 186 92" fill="none" xmlns="http://www.w3.org/2000/svg">
<path d="M16.128 64V20.48H23.488V64H16.128ZM1.536 25.92V19.2H38.08V25.92H1.536ZM62.097 64.64C58.897 64.64 55.9103 64.0427 53.137 62.848C50.3637 61.6533 47.9317 60.0107 45.841 57.92C43.7503 55.7867 42.1077 53.3333 40.913 50.56C39.761 47.744 39.185 44.736 39.185 41.536C39.185 38.336 39.761 35.3493 40.913 32.576C42.1077 29.8027 43.729 27.3707 45.777 25.28C47.8677 23.1467 50.2783 21.504 53.009 20.352C55.7823 19.1573 58.769 18.56 61.969 18.56C65.169 18.56 68.1343 19.1573 70.865 20.352C73.6383 21.504 76.0703 23.1467 78.161 25.28C80.2517 27.3707 81.873 29.824 83.025 32.64C84.2197 35.4133 84.817 38.4 84.817 41.6C84.817 44.8 84.2197 47.808 83.025 50.624C81.873 53.3973 80.2517 55.8293 78.161 57.92C76.113 60.0107 73.7023 61.6533 70.929 62.848C68.1983 64.0427 65.2543 64.64 62.097 64.64ZM61.969 57.6C64.9983 57.6 67.6437 56.9173 69.905 55.552C72.209 54.1867 74.001 52.3093 75.281 49.92C76.6037 47.488 77.265 44.6933 77.265 41.536C77.265 39.1893 76.881 37.056 76.113 35.136C75.3877 33.1733 74.3423 31.488 72.977 30.08C71.6117 28.6293 69.9903 27.52 68.113 26.752C66.2783 25.984 64.2303 25.6 61.969 25.6C58.9823 25.6 56.337 26.2827 54.033 27.648C51.7717 28.9707 49.9797 30.8267 48.657 33.216C47.377 35.6053 46.737 38.3787 46.737 41.536C46.737 43.8827 47.0997 46.0587 47.825 48.064C48.593 50.0267 49.6383 51.712 50.961 53.12C52.3263 54.528 53.9477 55.6373 55.825 56.448C57.7023 57.216 59.7503 57.6 61.969 57.6Z" fill="white"/>
<mask id="path-2-outside-1_411_117" maskUnits="userSpaceOnUse" x="79" y="14" width="89" height="50" fill="black">
<rect fill="white" x="79" y="14" width="89" height="50"/>
<path d="M83.72 62.64C82.696 62.64 81.9493 62.4053 81.48 61.936C81.0107 61.4667 80.776 60.72 80.776 59.696V18.224C80.776 17.2 81.0107 16.4533 81.48 15.984C81.9493 15.5147 82.696 15.28 83.72 15.28H93.64C94.664 15.28 95.4107 15.5147 95.88 15.984C96.3493 16.4533 96.584 17.2 96.584 18.224V49.264H104.072V39.536C104.072 38.512 104.307 37.7653 104.776 37.296C105.245 36.8267 105.992 36.592 107.016 36.592H116.296C117.32 36.592 118.067 36.8267 118.536 37.296C119.005 37.7653 119.24 38.512 119.24 39.536V59.696C119.24 60.72 119.005 61.4667 118.536 61.936C118.067 62.4053 117.32 62.64 116.296 62.64H83.72ZM116.296 62C117.107 62 117.683 61.8293 118.024 61.488C118.408 61.104 118.6 60.5067 118.6 59.696V39.536C118.6 38.7253 118.408 38.1493 118.024 37.808C117.683 37.424 117.107 37.232 116.296 37.232H107.016C106.205 37.232 105.608 37.424 105.224 37.808C104.883 38.1493 104.712 38.7253 104.712 39.536V49.904H95.944V18.224C95.944 17.4133 95.752 16.8373 95.368 16.496C95.0267 16.112 94.4507 15.92 93.64 15.92H83.72C82.9093 15.92 82.312 16.112 81.928 16.496C81.5867 16.8373 81.416 17.4133 81.416 18.224V59.696C81.416 60.5067 81.5867 61.104 81.928 61.488C82.312 61.8293 82.9093 62 83.72 62H116.296ZM88.392 56.24V21.68H89.032V55.6H111.304V42.992H111.944V56.24H88.392ZM133.532 56.24H132.892V21.68H133.532V38.704H147.42L154.78 21.68H155.484L148.124 38.704H150.748C153.351 38.704 155.292 39.1947 156.572 40.176C157.852 41.1573 158.492 42.7573 158.492 44.976V56.24H157.852V44.976C157.852 42.928 157.255 41.4773 156.06 40.624C154.865 39.7707 153.095 39.344 150.748 39.344H133.532V56.24ZM138.14 62C138.951 62 139.527 61.8293 139.868 61.488C140.252 61.104 140.444 60.5067 140.444 59.696V45.04H148.892C149.575 45.04 150.087 45.232 150.428 45.616C150.769 46 150.94 46.5333 150.94 47.216V59.696C150.94 60.5067 151.111 61.104 151.452 61.488C151.836 61.8293 152.433 62 153.244 62H163.1C163.911 62 164.487 61.8293 164.828 61.488C165.212 61.104 165.404 60.5067 165.404 59.696V41.648C165.404 39.088 164.679 37.04 163.228 35.504C161.82 33.9253 159.921 33.072 157.532 32.944L164.06 18.032C164.359 17.3493 164.38 16.8373 164.124 16.496C163.868 16.112 163.377 15.92 162.652 15.92H152.796C151.985 15.92 151.324 16.0907 150.812 16.432C150.3 16.7307 149.895 17.264 149.596 18.032L143.004 32.944H140.444V18.224C140.444 17.4133 140.252 16.8373 139.868 16.496C139.527 16.112 138.951 15.92 138.14 15.92H128.22C127.409 15.92 126.812 16.112 126.428 16.496C126.087 16.8373 125.916 17.4133 125.916 18.224V59.696C125.916 60.5067 126.087 61.104 126.428 61.488C126.812 61.8293 127.409 62 128.22 62H138.14ZM138.14 62.64H128.22C127.196 62.64 126.449 62.4053 125.98 61.936C125.511 61.4667 125.276 60.72 125.276 59.696V18.224C125.276 17.2 125.511 16.4533 125.98 15.984C126.449 15.5147 127.196 15.28 128.22 15.28H138.14C139.164 15.28 139.911 15.5147 140.38 15.984C140.849 16.4533 141.084 17.2 141.084 18.224V32.304H142.62L149.02 17.776C149.404 16.88 149.873 16.24 150.428 15.856C151.025 15.472 151.815 15.28 152.796 15.28H162.652C163.719 15.28 164.423 15.5573 164.764 16.112C165.105 16.624 165.063 17.3493 164.636 18.288L158.492 32.368C160.796 32.6667 162.631 33.648 163.996 35.312C165.361 36.976 166.044 39.088 166.044 41.648V59.696C166.044 60.72 165.809 61.4667 165.34 61.936C164.871 62.4053 164.124 62.64 163.1 62.64H153.244C152.22 62.64 151.473 62.4053 151.004 61.936C150.535 61.4667 150.3 60.72 150.3 59.696V47.216C150.3 46.7467 150.172 46.384 149.916 46.128C149.703 45.8293 149.361 45.68 148.892 45.68H141.084V59.696C141.084 60.72 140.849 61.4667 140.38 61.936C139.911 62.4053 139.164 62.64 138.14 62.64Z"/>
</mask>
<path d="M83.72 62.64C82.696 62.64 81.9493 62.4053 81.48 61.936C81.0107 61.4667 80.776 60.72 80.776 59.696V18.224C80.776 17.2 81.0107 16.4533 81.48 15.984C81.9493 15.5147 82.696 15.28 83.72 15.28H93.64C94.664 15.28 95.4107 15.5147 95.88 15.984C96.3493 16.4533 96.584 17.2 96.584 18.224V49.264H104.072V39.536C104.072 38.512 104.307 37.7653 104.776 37.296C105.245 36.8267 105.992 36.592 107.016 36.592H116.296C117.32 36.592 118.067 36.8267 118.536 37.296C119.005 37.7653 119.24 38.512 119.24 39.536V59.696C119.24 60.72 119.005 61.4667 118.536 61.936C118.067 62.4053 117.32 62.64 116.296 62.64H83.72ZM116.296 62C117.107 62 117.683 61.8293 118.024 61.488C118.408 61.104 118.6 60.5067 118.6 59.696V39.536C118.6 38.7253 118.408 38.1493 118.024 37.808C117.683 37.424 117.107 37.232 116.296 37.232H107.016C106.205 37.232 105.608 37.424 105.224 37.808C104.883 38.1493 104.712 38.7253 104.712 39.536V49.904H95.944V18.224C95.944 17.4133 95.752 16.8373 95.368 16.496C95.0267 16.112 94.4507 15.92 93.64 15.92H83.72C82.9093 15.92 82.312 16.112 81.928 16.496C81.5867 16.8373 81.416 17.4133 81.416 18.224V59.696C81.416 60.5067 81.5867 61.104 81.928 61.488C82.312 61.8293 82.9093 62 83.72 62H116.296ZM88.392 56.24V21.68H89.032V55.6H111.304V42.992H111.944V56.24H88.392ZM133.532 56.24H132.892V21.68H133.532V38.704H147.42L154.78 21.68H155.484L148.124 38.704H150.748C153.351 38.704 155.292 39.1947 156.572 40.176C157.852 41.1573 158.492 42.7573 158.492 44.976V56.24H157.852V44.976C157.852 42.928 157.255 41.4773 156.06 40.624C154.865 39.7707 153.095 39.344 150.748 39.344H133.532V56.24ZM138.14 62C138.951 62 139.527 61.8293 139.868 61.488C140.252 61.104 140.444 60.5067 140.444 59.696V45.04H148.892C149.575 45.04 150.087 45.232 150.428 45.616C150.769 46 150.94 46.5333 150.94 47.216V59.696C150.94 60.5067 151.111 61.104 151.452 61.488C151.836 61.8293 152.433 62 153.244 62H163.1C163.911 62 164.487 61.8293 164.828 61.488C165.212 61.104 165.404 60.5067 165.404 59.696V41.648C165.404 39.088 164.679 37.04 163.228 35.504C161.82 33.9253 159.921 33.072 157.532 32.944L164.06 18.032C164.359 17.3493 164.38 16.8373 164.124 16.496C163.868 16.112 163.377 15.92 162.652 15.92H152.796C151.985 15.92 151.324 16.0907 150.812 16.432C150.3 16.7307 149.895 17.264 149.596 18.032L143.004 32.944H140.444V18.224C140.444 17.4133 140.252 16.8373 139.868 16.496C139.527 16.112 138.951 15.92 138.14 15.92H128.22C127.409 15.92 126.812 16.112 126.428 16.496C126.087 16.8373 125.916 17.4133 125.916 18.224V59.696C125.916 60.5067 126.087 61.104 126.428 61.488C126.812 61.8293 127.409 62 128.22 62H138.14ZM138.14 62.64H128.22C127.196 62.64 126.449 62.4053 125.98 61.936C125.511 61.4667 125.276 60.72 125.276 59.696V18.224C125.276 17.2 125.511 16.4533 125.98 15.984C126.449 15.5147 127.196 15.28 128.22 15.28H138.14C139.164 15.28 139.911 15.5147 140.38 15.984C140.849 16.4533 141.084 17.2 141.084 18.224V32.304H142.62L149.02 17.776C149.404 16.88 149.873 16.24 150.428 15.856C151.025 15.472 151.815 15.28 152.796 15.28H162.652C163.719 15.28 164.423 15.5573 164.764 16.112C165.105 16.624 165.063 17.3493 164.636 18.288L158.492 32.368C160.796 32.6667 162.631 33.648 163.996 35.312C165.361 36.976 166.044 39.088 166.044 41.648V59.696C166.044 60.72 165.809 61.4667 165.34 61.936C164.871 62.4053 164.124 62.64 163.1 62.64H153.244C152.22 62.64 151.473 62.4053 151.004 61.936C150.535 61.4667 150.3 60.72 150.3 59.696V47.216C150.3 46.7467 150.172 46.384 149.916 46.128C149.703 45.8293 149.361 45.68 148.892 45.68H141.084V59.696C141.084 60.72 140.849 61.4667 140.38 61.936C139.911 62.4053 139.164 62.64 138.14 62.64Z" fill="white"/>
<path d="M81.48 61.936L80.7729 62.6431V62.6431L81.48 61.936ZM81.48 15.984L80.7729 15.2769L80.7729 15.2769L81.48 15.984ZM95.88 15.984L96.5871 15.2769H96.5871L95.88 15.984ZM96.584 49.264H95.584V50.264H96.584V49.264ZM104.072 49.264V50.264H105.072V49.264H104.072ZM104.776 37.296L105.483 38.0031H105.483L104.776 37.296ZM118.536 37.296L119.243 36.5889V36.5889L118.536 37.296ZM118.536 61.936L119.243 62.6431L119.243 62.6431L118.536 61.936ZM118.024 61.488L118.731 62.1951V62.1951L118.024 61.488ZM118.024 37.808L117.277 38.4724L117.316 38.5163L117.36 38.5554L118.024 37.808ZM105.224 37.808L104.517 37.1009V37.1009L105.224 37.808ZM104.712 49.904V50.904H105.712V49.904H104.712ZM95.944 49.904H94.944V50.904H95.944V49.904ZM95.368 16.496L94.6206 17.1604L94.6597 17.2043L94.7036 17.2434L95.368 16.496ZM81.928 16.496L81.2209 15.7889H81.2209L81.928 16.496ZM81.928 61.488L81.1806 62.1524L81.2197 62.1963L81.2636 62.2354L81.928 61.488ZM88.392 56.24H87.392V57.24H88.392V56.24ZM88.392 21.68V20.68H87.392V21.68H88.392ZM89.032 21.68H90.032V20.68H89.032V21.68ZM89.032 55.6H88.032V56.6H89.032V55.6ZM111.304 55.6V56.6H112.304V55.6H111.304ZM111.304 42.992V41.992H110.304V42.992H111.304ZM111.944 42.992H112.944V41.992H111.944V42.992ZM111.944 56.24V57.24H112.944V56.24H111.944ZM83.72 62.64V61.64C82.8206 61.64 82.3886 61.4304 82.1871 61.2289L81.48 61.936L80.7729 62.6431C81.5101 63.3803 82.5714 63.64 83.72 63.64V62.64ZM81.48 61.936L82.1871 61.2289C81.9856 61.0274 81.776 60.5954 81.776 59.696H80.776H79.776C79.776 60.8446 80.0357 61.9059 80.7729 62.6431L81.48 61.936ZM80.776 59.696H81.776V18.224H80.776H79.776V59.696H80.776ZM80.776 18.224H81.776C81.776 17.3246 81.9856 16.8926 82.1871 16.6911L81.48 15.984L80.7729 15.2769C80.0357 16.0141 79.776 17.0754 79.776 18.224H80.776ZM81.48 15.984L82.1871 16.6911C82.3886 16.4896 82.8206 16.28 83.72 16.28V15.28V14.28C82.5714 14.28 81.5101 14.5397 80.7729 15.2769L81.48 15.984ZM83.72 15.28V16.28H93.64V15.28V14.28H83.72V15.28ZM93.64 15.28V16.28C94.5394 16.28 94.9714 16.4896 95.1729 16.6911L95.88 15.984L96.5871 15.2769C95.8499 14.5397 94.7886 14.28 93.64 14.28V15.28ZM95.88 15.984L95.1729 16.6911C95.3744 16.8926 95.584 17.3246 95.584 18.224H96.584H97.584C97.584 17.0754 97.3243 16.0141 96.5871 15.2769L95.88 15.984ZM96.584 18.224H95.584V49.264H96.584H97.584V18.224H96.584ZM96.584 49.264V50.264H104.072V49.264V48.264H96.584V49.264ZM104.072 49.264H105.072V39.536H104.072H103.072V49.264H104.072ZM104.072 39.536H105.072C105.072 38.6366 105.282 38.2046 105.483 38.0031L104.776 37.296L104.069 36.5889C103.332 37.3261 103.072 38.3874 103.072 39.536H104.072ZM104.776 37.296L105.483 38.0031C105.685 37.8016 106.117 37.592 107.016 37.592V36.592V35.592C105.867 35.592 104.806 35.8517 104.069 36.5889L104.776 37.296ZM107.016 36.592V37.592H116.296V36.592V35.592H107.016V36.592ZM116.296 36.592V37.592C117.195 37.592 117.627 37.8016 117.829 38.0031L118.536 37.296L119.243 36.5889C118.506 35.8517 117.445 35.592 116.296 35.592V36.592ZM118.536 37.296L117.829 38.0031C118.03 38.2046 118.24 38.6366 118.24 39.536H119.24H120.24C120.24 38.3874 119.98 37.3261 119.243 36.5889L118.536 37.296ZM119.24 39.536H118.24V59.696H119.24H120.24V39.536H119.24ZM119.24 59.696H118.24C118.24 60.5954 118.03 61.0274 117.829 61.2289L118.536 61.936L119.243 62.6431C119.98 61.9059 120.24 60.8446 120.24 59.696H119.24ZM118.536 61.936L117.829 61.2289C117.627 61.4304 117.195 61.64 116.296 61.64V62.64V63.64C117.445 63.64 118.506 63.3803 119.243 62.6431L118.536 61.936ZM116.296 62.64V61.64H83.72V62.64V63.64H116.296V62.64ZM116.296 62V63C117.202 63 118.109 62.8171 118.731 62.1951L118.024 61.488L117.317 60.7809C117.256 60.8416 117.011 61 116.296 61V62ZM118.024 61.488L118.731 62.1951C119.378 61.5485 119.6 60.6425 119.6 59.696H118.6H117.6C117.6 60.3708 117.438 60.6595 117.317 60.7809L118.024 61.488ZM118.6 59.696H119.6V39.536H118.6H117.6V59.696H118.6ZM118.6 39.536H119.6C119.6 38.6025 119.383 37.6781 118.688 37.0606L118.024 37.808L117.36 38.5554C117.433 38.6206 117.6 38.8482 117.6 39.536H118.6ZM118.024 37.808L118.771 37.1436C118.154 36.449 117.23 36.232 116.296 36.232V37.232V38.232C116.984 38.232 117.211 38.399 117.277 38.4724L118.024 37.808ZM116.296 37.232V36.232H107.016V37.232V38.232H116.296V37.232ZM107.016 37.232V36.232C106.07 36.232 105.163 36.4543 104.517 37.1009L105.224 37.808L105.931 38.5151C106.053 38.3937 106.341 38.232 107.016 38.232V37.232ZM105.224 37.808L104.517 37.1009C103.895 37.7229 103.712 38.6299 103.712 39.536H104.712H105.712C105.712 38.8207 105.87 38.5758 105.931 38.5151L105.224 37.808ZM104.712 39.536H103.712V49.904H104.712H105.712V39.536H104.712ZM104.712 49.904V48.904H95.944V49.904V50.904H104.712V49.904ZM95.944 49.904H96.944V18.224H95.944H94.944V49.904H95.944ZM95.944 18.224H96.944C96.944 17.2905 96.727 16.3661 96.0324 15.7486L95.368 16.496L94.7036 17.2434C94.777 17.3086 94.944 17.5362 94.944 18.224H95.944ZM95.368 16.496L96.1154 15.8316C95.4979 15.137 94.5735 14.92 93.64 14.92V15.92V16.92C94.3278 16.92 94.5554 17.087 94.6206 17.1604L95.368 16.496ZM93.64 15.92V14.92H83.72V15.92V16.92H93.64V15.92ZM83.72 15.92V14.92C82.7735 14.92 81.8675 15.1423 81.2209 15.7889L81.928 16.496L82.6351 17.2031C82.7565 17.0817 83.0451 16.92 83.72 16.92V15.92ZM81.928 16.496L81.2209 15.7889C80.5989 16.4109 80.416 17.3179 80.416 18.224H81.416H82.416C82.416 17.5087 82.5744 17.2638 82.6351 17.2031L81.928 16.496ZM81.416 18.224H80.416V59.696H81.416H82.416V18.224H81.416ZM81.416 59.696H80.416C80.416 60.6169 80.6051 61.5049 81.1806 62.1524L81.928 61.488L82.6754 60.8236C82.5683 60.7031 82.416 60.3964 82.416 59.696H81.416ZM81.928 61.488L81.2636 62.2354C81.9111 62.8109 82.7991 63 83.72 63V62V61C83.0196 61 82.7129 60.8477 82.5924 60.7406L81.928 61.488ZM83.72 62V63H116.296V62V61H83.72V62ZM88.392 56.24H89.392V21.68H88.392H87.392V56.24H88.392ZM88.392 21.68V22.68H89.032V21.68V20.68H88.392V21.68ZM89.032 21.68H88.032V55.6H89.032H90.032V21.68H89.032ZM89.032 55.6V56.6H111.304V55.6V54.6H89.032V55.6ZM111.304 55.6H112.304V42.992H111.304H110.304V55.6H111.304ZM111.304 42.992V43.992H111.944V42.992V41.992H111.304V42.992ZM111.944 42.992H110.944V56.24H111.944H112.944V42.992H111.944ZM111.944 56.24V55.24H88.392V56.24V57.24H111.944V56.24ZM133.532 56.24V57.24H134.532V56.24H133.532ZM132.892 56.24H131.892V57.24H132.892V56.24ZM132.892 21.68V20.68H131.892V21.68H132.892ZM133.532 21.68H134.532V20.68H133.532V21.68ZM133.532 38.704H132.532V39.704H133.532V38.704ZM147.42 38.704V39.704H148.077L148.338 39.1008L147.42 38.704ZM154.78 21.68V20.68H154.123L153.862 21.2832L154.78 21.68ZM155.484 21.68L156.402 22.0768L157.006 20.68H155.484V21.68ZM148.124 38.704L147.206 38.3072L146.602 39.704H148.124V38.704ZM156.572 40.176L157.18 39.3824V39.3824L156.572 40.176ZM158.492 56.24V57.24H159.492V56.24H158.492ZM157.852 56.24H156.852V57.24H157.852V56.24ZM156.06 40.624L156.641 39.8103V39.8103L156.06 40.624ZM133.532 39.344V38.344H132.532V39.344H133.532ZM139.868 61.488L139.161 60.7809V60.7809L139.868 61.488ZM140.444 45.04V44.04H139.444V45.04H140.444ZM151.452 61.488L150.705 62.1524L150.744 62.1963L150.788 62.2354L151.452 61.488ZM164.828 61.488L165.535 62.1951V62.1951L164.828 61.488ZM163.228 35.504L162.482 36.1696L162.491 36.1803L162.501 36.1906L163.228 35.504ZM157.532 32.944L156.616 32.543L156.037 33.8653L157.479 33.9426L157.532 32.944ZM164.06 18.032L164.976 18.433L164.976 18.4328L164.06 18.032ZM164.124 16.496L163.292 17.0507L163.307 17.0738L163.324 17.096L164.124 16.496ZM150.812 16.432L151.316 17.2958L151.342 17.2807L151.367 17.264L150.812 16.432ZM149.596 18.032L150.511 18.4363L150.52 18.4156L150.528 18.3944L149.596 18.032ZM143.004 32.944V33.944H143.655L143.919 33.3483L143.004 32.944ZM140.444 32.944H139.444V33.944H140.444V32.944ZM139.868 16.496L139.121 17.1604L139.16 17.2043L139.204 17.2434L139.868 16.496ZM126.428 16.496L125.721 15.7889V15.7889L126.428 16.496ZM126.428 61.488L125.681 62.1524L125.72 62.1963L125.764 62.2354L126.428 61.488ZM125.98 61.936L125.273 62.6431V62.6431L125.98 61.936ZM125.98 15.984L125.273 15.2769L125.273 15.2769L125.98 15.984ZM140.38 15.984L141.087 15.2769H141.087L140.38 15.984ZM141.084 32.304H140.084V33.304H141.084V32.304ZM142.62 32.304V33.304H143.272L143.535 32.7071L142.62 32.304ZM149.02 17.776L149.935 18.1792L149.939 18.1699L149.02 17.776ZM150.428 15.856L149.887 15.0148L149.873 15.0241L149.859 15.0338L150.428 15.856ZM164.764 16.112L163.912 16.6361L163.922 16.6516L163.932 16.6667L164.764 16.112ZM164.636 18.288L163.726 17.8742L163.722 17.8811L163.719 17.8881L164.636 18.288ZM158.492 32.368L157.575 31.9681L157.043 33.1885L158.363 33.3597L158.492 32.368ZM165.34 61.936L166.047 62.6431L166.047 62.6431L165.34 61.936ZM151.004 61.936L151.711 61.2289V61.2289L151.004 61.936ZM149.916 46.128L149.102 46.7092L149.15 46.7766L149.209 46.8351L149.916 46.128ZM141.084 45.68V44.68H140.084V45.68H141.084ZM140.38 61.936L139.673 61.2289V61.2289L140.38 61.936ZM133.532 56.24V55.24H132.892V56.24V57.24H133.532V56.24ZM132.892 56.24H133.892V21.68H132.892H131.892V56.24H132.892ZM132.892 21.68V22.68H133.532V21.68V20.68H132.892V21.68ZM133.532 21.68H132.532V38.704H133.532H134.532V21.68H133.532ZM133.532 38.704V39.704H147.42V38.704V37.704H133.532V38.704ZM147.42 38.704L148.338 39.1008L155.698 22.0768L154.78 21.68L153.862 21.2832L146.502 38.3072L147.42 38.704ZM154.78 21.68V22.68H155.484V21.68V20.68H154.78V21.68ZM155.484 21.68L154.566 21.2832L147.206 38.3072L148.124 38.704L149.042 39.1008L156.402 22.0768L155.484 21.68ZM148.124 38.704V39.704H150.748V38.704V37.704H148.124V38.704ZM150.748 38.704V39.704C153.256 39.704 154.936 40.1822 155.964 40.9696L156.572 40.176L157.18 39.3824C155.648 38.2072 153.446 37.704 150.748 37.704V38.704ZM156.572 40.176L155.964 40.9696C156.912 41.6969 157.492 42.9436 157.492 44.976H158.492H159.492C159.492 42.5711 158.792 40.6178 157.18 39.3824L156.572 40.176ZM158.492 44.976H157.492V56.24H158.492H159.492V44.976H158.492ZM158.492 56.24V55.24H157.852V56.24V57.24H158.492V56.24ZM157.852 56.24H158.852V44.976H157.852H156.852V56.24H157.852ZM157.852 44.976H158.852C158.852 42.7423 158.193 40.9189 156.641 39.8103L156.06 40.624L155.479 41.4377C156.316 42.0357 156.852 43.1137 156.852 44.976H157.852ZM156.06 40.624L156.641 39.8103C155.203 38.7828 153.188 38.344 150.748 38.344V39.344V40.344C153.001 40.344 154.528 40.7586 155.479 41.4377L156.06 40.624ZM150.748 39.344V38.344H133.532V39.344V40.344H150.748V39.344ZM133.532 39.344H132.532V56.24H133.532H134.532V39.344H133.532ZM138.14 62V63C139.046 63 139.953 62.8171 140.575 62.1951L139.868 61.488L139.161 60.7809C139.1 60.8416 138.855 61 138.14 61V62ZM139.868 61.488L140.575 62.1951C141.222 61.5485 141.444 60.6425 141.444 59.696H140.444H139.444C139.444 60.3708 139.282 60.6595 139.161 60.7809L139.868 61.488ZM140.444 59.696H141.444V45.04H140.444H139.444V59.696H140.444ZM140.444 45.04V46.04H148.892V45.04V44.04H140.444V45.04ZM148.892 45.04V46.04C149.388 46.04 149.586 46.1741 149.681 46.2804L150.428 45.616L151.175 44.9516C150.587 44.2899 149.761 44.04 148.892 44.04V45.04ZM150.428 45.616L149.681 46.2804C149.812 46.4282 149.94 46.6964 149.94 47.216H150.94H151.94C151.94 46.3703 151.727 45.5718 151.175 44.9516L150.428 45.616ZM150.94 47.216H149.94V59.696H150.94H151.94V47.216H150.94ZM150.94 59.696H149.94C149.94 60.6169 150.129 61.5049 150.705 62.1524L151.452 61.488L152.199 60.8236C152.092 60.7031 151.94 60.3964 151.94 59.696H150.94ZM151.452 61.488L150.788 62.2354C151.435 62.8109 152.323 63 153.244 63V62V61C152.544 61 152.237 60.8477 152.116 60.7406L151.452 61.488ZM153.244 62V63H163.1V62V61H153.244V62ZM163.1 62V63C164.006 63 164.913 62.8171 165.535 62.1951L164.828 61.488L164.121 60.7809C164.06 60.8416 163.815 61 163.1 61V62ZM164.828 61.488L165.535 62.1951C166.182 61.5485 166.404 60.6425 166.404 59.696H165.404H164.404C164.404 60.3708 164.242 60.6595 164.121 60.7809L164.828 61.488ZM165.404 59.696H166.404V41.648H165.404H164.404V59.696H165.404ZM165.404 41.648H166.404C166.404 38.8898 165.617 36.5768 163.955 34.8174L163.228 35.504L162.501 36.1906C163.741 37.5032 164.404 39.2862 164.404 41.648H165.404ZM163.228 35.504L163.974 34.8384C162.365 33.0341 160.203 32.0856 157.585 31.9454L157.532 32.944L157.479 33.9426C159.64 34.0583 161.275 34.8166 162.482 36.1696L163.228 35.504ZM157.532 32.944L158.448 33.345L164.976 18.433L164.06 18.032L163.144 17.631L156.616 32.543L157.532 32.944ZM164.06 18.032L164.976 18.4328C165.309 17.6712 165.522 16.6928 164.924 15.896L164.124 16.496L163.324 17.096C163.287 17.047 163.304 17.0207 163.301 17.0944C163.297 17.1839 163.264 17.3563 163.144 17.6312L164.06 18.032ZM164.124 16.496L164.956 15.9413C164.426 15.1469 163.513 14.92 162.652 14.92V15.92V16.92C162.934 16.92 163.105 16.9583 163.2 16.9952C163.244 17.0127 163.267 17.0281 163.277 17.0358C163.286 17.0428 163.29 17.0472 163.292 17.0507L164.124 16.496ZM162.652 15.92V14.92H152.796V15.92V16.92H162.652V15.92ZM152.796 15.92V14.92C151.85 14.92 150.978 15.1193 150.257 15.5999L150.812 16.432L151.367 17.264C151.67 17.0621 152.121 16.92 152.796 16.92V15.92ZM150.812 16.432L150.308 15.5682C149.537 16.018 149.013 16.7719 148.664 17.6696L149.596 18.032L150.528 18.3944C150.776 17.7561 151.063 17.4433 151.316 17.2958L150.812 16.432ZM149.596 18.032L148.681 17.6277L142.089 32.5397L143.004 32.944L143.919 33.3483L150.511 18.4363L149.596 18.032ZM143.004 32.944V31.944H140.444V32.944V33.944H143.004V32.944ZM140.444 32.944H141.444V18.224H140.444H139.444V32.944H140.444ZM140.444 18.224H141.444C141.444 17.2905 141.227 16.3661 140.532 15.7486L139.868 16.496L139.204 17.2434C139.277 17.3086 139.444 17.5362 139.444 18.224H140.444ZM139.868 16.496L140.615 15.8316C139.998 15.137 139.074 14.92 138.14 14.92V15.92V16.92C138.828 16.92 139.055 17.087 139.121 17.1604L139.868 16.496ZM138.14 15.92V14.92H128.22V15.92V16.92H138.14V15.92ZM128.22 15.92V14.92C127.274 14.92 126.367 15.1423 125.721 15.7889L126.428 16.496L127.135 17.2031C127.257 17.0817 127.545 16.92 128.22 16.92V15.92ZM126.428 16.496L125.721 15.7889C125.099 16.4109 124.916 17.3179 124.916 18.224H125.916H126.916C126.916 17.5087 127.074 17.2638 127.135 17.2031L126.428 16.496ZM125.916 18.224H124.916V59.696H125.916H126.916V18.224H125.916ZM125.916 59.696H124.916C124.916 60.6169 125.105 61.5049 125.681 62.1524L126.428 61.488L127.175 60.8236C127.068 60.7031 126.916 60.3964 126.916 59.696H125.916ZM126.428 61.488L125.764 62.2354C126.411 62.8109 127.299 63 128.22 63V62V61C127.52 61 127.213 60.8477 127.092 60.7406L126.428 61.488ZM128.22 62V63H138.14V62V61H128.22V62ZM138.14 62.64V61.64H128.22V62.64V63.64H138.14V62.64ZM128.22 62.64V61.64C127.321 61.64 126.889 61.4304 126.687 61.2289L125.98 61.936L125.273 62.6431C126.01 63.3803 127.071 63.64 128.22 63.64V62.64ZM125.98 61.936L126.687 61.2289C126.486 61.0274 126.276 60.5954 126.276 59.696H125.276H124.276C124.276 60.8446 124.536 61.9059 125.273 62.6431L125.98 61.936ZM125.276 59.696H126.276V18.224H125.276H124.276V59.696H125.276ZM125.276 18.224H126.276C126.276 17.3246 126.486 16.8926 126.687 16.6911L125.98 15.984L125.273 15.2769C124.536 16.0141 124.276 17.0754 124.276 18.224H125.276ZM125.98 15.984L126.687 16.6911C126.889 16.4896 127.321 16.28 128.22 16.28V15.28V14.28C127.071 14.28 126.01 14.5397 125.273 15.2769L125.98 15.984ZM128.22 15.28V16.28H138.14V15.28V14.28H128.22V15.28ZM138.14 15.28V16.28C139.039 16.28 139.471 16.4896 139.673 16.6911L140.38 15.984L141.087 15.2769C140.35 14.5397 139.289 14.28 138.14 14.28V15.28ZM140.38 15.984L139.673 16.6911C139.874 16.8926 140.084 17.3246 140.084 18.224H141.084H142.084C142.084 17.0754 141.824 16.0141 141.087 15.2769L140.38 15.984ZM141.084 18.224H140.084V32.304H141.084H142.084V18.224H141.084ZM141.084 32.304V33.304H142.62V32.304V31.304H141.084V32.304ZM142.62 32.304L143.535 32.7071L149.935 18.1791L149.02 17.776L148.105 17.3729L141.705 31.9009L142.62 32.304ZM149.02 17.776L149.939 18.1699C150.28 17.374 150.651 16.9176 150.997 16.6782L150.428 15.856L149.859 15.0338C149.095 15.5624 148.528 16.386 148.101 17.3821L149.02 17.776ZM150.428 15.856L150.969 16.6972C151.354 16.4494 151.936 16.28 152.796 16.28V15.28V14.28C151.694 14.28 150.696 14.4946 149.887 15.0148L150.428 15.856ZM152.796 15.28V16.28H162.652V15.28V14.28H152.796V15.28ZM162.652 15.28V16.28C163.601 16.28 163.847 16.5304 163.912 16.6361L164.764 16.112L165.616 15.5879C164.998 14.5843 163.837 14.28 162.652 14.28V15.28ZM164.764 16.112L163.932 16.6667C163.979 16.7368 164.108 17.0329 163.726 17.8742L164.636 18.288L165.546 18.7018C166.017 17.6657 166.232 16.5112 165.596 15.5573L164.764 16.112ZM164.636 18.288L163.719 17.8881L157.575 31.9681L158.492 32.368L159.409 32.7679L165.553 18.6879L164.636 18.288ZM158.492 32.368L158.363 33.3597C160.437 33.6285 162.033 34.4956 163.223 35.9463L163.996 35.312L164.769 34.6777C163.229 32.8004 161.155 31.7049 158.621 31.3763L158.492 32.368ZM163.996 35.312L163.223 35.9463C164.415 37.3991 165.044 39.2736 165.044 41.648H166.044H167.044C167.044 38.9024 166.308 36.5529 164.769 34.6777L163.996 35.312ZM166.044 41.648H165.044V59.696H166.044H167.044V41.648H166.044ZM166.044 59.696H165.044C165.044 60.5954 164.834 61.0274 164.633 61.2289L165.34 61.936L166.047 62.6431C166.784 61.9059 167.044 60.8446 167.044 59.696H166.044ZM165.34 61.936L164.633 61.2289C164.431 61.4304 163.999 61.64 163.1 61.64V62.64V63.64C164.249 63.64 165.31 63.3803 166.047 62.6431L165.34 61.936ZM163.1 62.64V61.64H153.244V62.64V63.64H163.1V62.64ZM153.244 62.64V61.64C152.345 61.64 151.913 61.4304 151.711 61.2289L151.004 61.936L150.297 62.6431C151.034 63.3803 152.095 63.64 153.244 63.64V62.64ZM151.004 61.936L151.711 61.2289C151.51 61.0274 151.3 60.5954 151.3 59.696H150.3H149.3C149.3 60.8446 149.56 61.9059 150.297 62.6431L151.004 61.936ZM150.3 59.696H151.3V47.216H150.3H149.3V59.696H150.3ZM150.3 47.216H151.3C151.3 46.5635 151.118 45.9154 150.623 45.4209L149.916 46.128L149.209 46.8351C149.226 46.8526 149.3 46.9299 149.3 47.216H150.3ZM149.916 46.128L150.73 45.5468C150.277 44.9133 149.584 44.68 148.892 44.68V45.68V46.68C149.023 46.68 149.083 46.7012 149.099 46.7082C149.107 46.7114 149.107 46.7124 149.104 46.7099C149.101 46.7074 149.1 46.706 149.102 46.7092L149.916 46.128ZM148.892 45.68V44.68H141.084V45.68V46.68H148.892V45.68ZM141.084 45.68H140.084V59.696H141.084H142.084V45.68H141.084ZM141.084 59.696H140.084C140.084 60.5954 139.874 61.0274 139.673 61.2289L140.38 61.936L141.087 62.6431C141.824 61.9059 142.084 60.8446 142.084 59.696H141.084ZM140.38 61.936L139.673 61.2289C139.471 61.4304 139.039 61.64 138.14 61.64V62.64V63.64C139.289 63.64 140.35 63.3803 141.087 62.6431L140.38 61.936Z" fill="white" mask="url(#path-2-outside-1_411_117)"/>
<rect x="71.5" y="31.5" width="27" height="19" rx="9.5" fill="#FDFDFF"/>
<rect x="71.5" y="31.5" width="27" height="19" rx="9.5" stroke="black"/>
<path d="M77.576 46V43.844H79.956C80.516 43.844 81.0013 43.7367 81.412 43.522C81.832 43.3073 82.154 42.99 82.378 42.57C82.602 42.1407 82.714 41.6227 82.714 41.016C82.714 40.4187 82.5973 39.9147 82.364 39.504C82.14 39.084 81.8227 38.7667 81.412 38.552C81.0013 38.3373 80.516 38.23 79.956 38.23H77.464V36.074H79.97C80.7353 36.074 81.44 36.1953 82.084 36.438C82.728 36.6713 83.288 37.0073 83.764 37.446C84.24 37.8847 84.6087 38.4073 84.87 39.014C85.1407 39.6207 85.276 40.2927 85.276 41.03C85.276 41.7767 85.1407 42.4533 84.87 43.06C84.6087 43.6667 84.24 44.1893 83.764 44.628C83.288 45.0667 82.728 45.4073 82.084 45.65C81.4493 45.8833 80.754 46 79.998 46H77.576ZM75.882 46V36.074H78.388V46H75.882ZM86.0424 44.264L90.8304 37.81H93.8544L89.0664 44.264H86.0424ZM86.0424 46V44.264L87.5404 43.9H93.7424V46H86.0424ZM86.2944 38.174V36.074H93.8544V37.81L92.3424 38.174H86.2944Z" fill="black"/>
</svg>
